<?xml version="1.0" standalone="no"?>
<!DOCTYPE svg PUBLIC "-//W3C//DTD SVG 20010904//EN"
 "http://www.w3.org/TR/2001/REC-SVG-20010904/DTD/svg10.dtd">
<svg version="1.0" xmlns="http://www.w3.org/2000/svg"
 width="512.000000pt" height="512.000000pt" viewBox="0 0 512.000000 512.000000"
 preserveAspectRatio="xMidYMid meet">
<metadata>
Created by potrace 1.11, written by Peter Selinger 2001-2013
</metadata>
<g transform="translate(0.000000,512.000000) scale(0.100000,-0.100000)"
fill="#000000" stroke="none">
<path d="M1422 5100 c0 -14 2 -19 5 -12 2 6 2 18 0 25 -3 6 -5 1 -5 -13z"/>
<path d="M2795 5110 c4 -6 11 -8 16 -5 14 9 11 15 -7 15 -8 0 -12 -5 -9 -10z"/>
<path d="M3180 5110 c-13 -8 -13 -10 2 -10 9 0 20 5 23 10 8 13 -5 13 -25 0z"/>
<path d="M252 5070 c0 -14 2 -19 5 -12 2 6 2 18 0 25 -3 6 -5 1 -5 -13z"/>
<path d="M1421 5044 c0 -11 3 -14 6 -6 3 7 2 16 -1 19 -3 4 -6 -2 -5 -13z"/>
<path d="M262 5015 c0 -16 2 -22 5 -12 2 9 2 23 0 30 -3 6 -5 -1 -5 -18z"/>
<path d="M270 4903 c0 -24 5 -43 10 -43 13 0 13 50 0 70 -7 11 -10 4 -10 -27z"/>
<path d="M2733 4899 c-39 -9 -76 -20 -81 -23 -5 -3 -56 -15 -112 -26 -57 -11
-120 -28 -141 -39 -20 -11 -55 -23 -76 -27 -68 -12 -147 -45 -132 -55 12 -8
12 -11 -1 -20 -19 -13 -179 -4 -194 11 -5 5 -34 10 -62 10 -29 0 -56 5 -60 11
-4 8 1 9 17 4 13 -4 21 -4 17 0 -4 4 -3 16 3 26 13 24 1 24 -31 -1 -15 -11
-41 -20 -63 -20 -20 0 -46 -6 -57 -12 -15 -10 -26 -10 -52 0 -23 8 -34 9 -39
1 -5 -8 -8 -8 -13 0 -6 8 -115 10 -395 8 -213 -2 -396 0 -407 4 -17 7 -16 8 6
9 23 1 23 2 5 9 -24 10 -62 2 -45 -9 15 -10 -408 -17 -540 -10 l-105 6 112 2
c61 1 114 6 117 11 3 5 -18 14 -47 20 -28 7 -70 17 -92 22 -22 6 -50 11 -63
11 -18 0 -21 4 -16 20 5 17 3 18 -14 9 -13 -7 -31 -7 -52 -1 -18 5 -52 7 -76
3 -38 -5 -44 -9 -44 -29 0 -18 6 -23 33 -27 l32 -3 -33 -9 c-52 -12 -19 -25
67 -25 41 0 71 -3 68 -7 -4 -3 -34 -5 -67 -4 -106 4 -100 16 -100 -189 0 -176
0 -178 21 -173 12 3 24 1 28 -5 5 -8 26 -8 71 -2 36 5 155 11 265 14 110 3
238 10 285 16 46 6 96 8 110 5 42 -11 430 -15 525 -5 95 10 413 30 553 34 58
2 87 7 92 17 5 7 12 11 15 7 6 -6 -5 -36 -61 -165 -8 -17 -14 -34 -14 -38 0
-3 -10 -27 -21 -53 -12 -25 -22 -51 -23 -58 -1 -6 -10 -19 -19 -28 -9 -10 -15
-22 -12 -26 3 -5 -3 -15 -14 -21 -10 -7 -17 -19 -14 -27 3 -8 -6 -2 -20 12
-31 31 -38 32 -68 6 -19 -15 -20 -19 -8 -20 9 0 19 -7 23 -15 9 -24 39 -19 33
5 -3 11 -1 20 4 20 15 0 10 -40 -5 -46 -8 -3 -25 0 -38 6 l-23 12 22 -23 c14
-14 34 -23 57 -23 22 -1 31 -5 25 -10 -13 -14 -11 -26 5 -26 17 0 29 -40 16
-54 -4 -6 -8 -27 -7 -47 0 -22 -6 -43 -16 -53 -11 -11 -17 -13 -17 -5 0 8 -7
5 -20 -6 -11 -10 -20 -13 -20 -7 0 7 -11 12 -25 12 -14 0 -25 -4 -25 -9 0 -5
-8 -8 -17 -7 -10 2 -28 -7 -40 -20 -12 -13 -28 -24 -35 -24 -7 0 -4 6 7 12 11
7 28 22 38 35 10 13 22 21 26 19 4 -3 8 1 8 10 0 17 -33 10 -55 -12 -7 -8 -15
-14 -16 -14 -6 0 1 37 12 56 10 19 9 21 -16 16 -15 -2 -32 -8 -38 -13 -6 -5
-21 -10 -35 -13 -13 -2 -23 -8 -22 -13 1 -6 -9 -16 -22 -23 -28 -15 -33 -30
-9 -30 9 0 14 -6 11 -12 -2 -7 -11 -12 -21 -10 -9 2 -16 -4 -16 -13 0 -8 5
-15 10 -15 6 0 10 -6 10 -14 0 -7 14 -23 30 -36 38 -30 31 -39 -8 -11 -17 12
-35 21 -41 21 -6 0 -11 5 -11 10 0 6 -8 10 -17 10 -14 -1 -12 -5 9 -21 14 -11
37 -29 50 -40 22 -19 22 -20 1 -10 -12 6 -24 15 -27 20 -3 5 -21 12 -41 15
-35 7 -58 26 -31 26 26 0 18 17 -9 23 -33 6 -55 -26 -28 -42 16 -10 16 -10 -3
-11 -13 0 -26 -12 -36 -33 -21 -45 -4 -61 56 -52 49 8 78 -1 55 -16 -8 -5 -31
-9 -51 -9 -41 0 -51 -15 -17 -25 17 -6 19 -9 8 -16 -12 -7 -12 -9 1 -9 11 0
11 -3 2 -12 -14 -14 -102 -20 -102 -8 0 4 10 11 22 15 13 3 18 9 12 11 -7 3
-10 14 -7 24 3 11 3 20 0 20 -5 0 -47 -67 -47 -75 0 -3 14 -12 30 -20 28 -14
33 -14 65 1 26 12 49 15 88 10 70 -9 64 -9 135 0 55 6 62 5 62 -11 0 -13 -6
-16 -21 -12 -17 4 -19 3 -10 -6 6 -6 11 -16 11 -23 0 -14 -66 -2 -83 15 -6 6
-16 11 -21 11 -6 0 6 -12 27 -27 43 -31 48 -48 11 -39 -23 6 -26 4 -21 -13 7
-29 -40 -37 -103 -16 -68 23 -85 14 -28 -14 33 -15 45 -27 41 -37 -3 -8 3 -21
13 -29 28 -21 10 -18 -31 5 -36 20 -36 20 -30 1 6 -19 4 -19 -37 3 -24 13 -55
23 -68 22 -17 -1 -28 6 -35 22 -11 26 -21 28 -29 6 -4 -10 -2 -13 6 -8 8 5 9
2 5 -9 -5 -13 5 -20 45 -32 29 -8 58 -15 65 -15 7 0 21 -9 30 -20 18 -20 38
-26 46 -12 2 4 2 1 0 -7 -2 -7 2 -20 8 -27 9 -11 8 -18 -1 -29 -7 -9 -15 -13
-18 -10 -3 2 1 12 9 22 12 15 12 16 -3 10 -12 -4 -23 1 -33 16 -12 17 -17 19
-24 8 -7 -10 -13 -11 -30 -2 -11 7 -21 16 -21 21 0 6 -4 10 -10 10 -5 0 -10
-9 -10 -19 0 -11 -5 -23 -11 -27 -6 -3 -8 -17 -4 -31 4 -17 2 -23 -6 -18 -6 4
-9 19 -5 35 3 18 0 33 -9 40 -8 7 -15 19 -15 26 0 8 -4 14 -10 14 -12 0 -13
-10 0 -30 10 -16 -6 -43 -21 -34 -15 9 -10 -6 10 -35 13 -18 17 -32 11 -42 -8
-12 -12 -11 -27 4 -14 14 -17 31 -16 77 1 33 -1 60 -6 60 -4 0 -8 7 -8 15 0 8
4 15 9 15 4 0 3 9 -4 20 -7 11 -19 18 -25 15 -7 -2 -13 0 -13 6 0 6 -8 5 -21
-2 -17 -9 -19 -13 -8 -20 11 -6 11 -9 -2 -14 -9 -3 -22 -5 -30 -3 -22 5 -16
-25 6 -32 11 -3 32 -13 48 -24 24 -16 27 -24 27 -77 0 -32 5 -61 10 -64 6 -3
10 2 11 12 0 10 5 4 12 -14 7 -18 16 -32 22 -32 5 0 11 -5 13 -13 2 -9 0 -8
-7 2 -6 8 -11 11 -11 6 0 -5 -6 -3 -13 3 -8 6 -17 7 -21 3 -4 -4 -14 2 -22 12
-13 18 -15 16 -33 -27 -22 -51 -31 -60 -25 -24 3 17 1 16 -8 -5 -15 -36 -26
-36 -20 1 2 16 0 31 -6 35 -5 3 -7 -6 -5 -22 4 -21 2 -24 -6 -12 -8 12 -11 7
-11 -22 0 -26 -5 -38 -17 -41 -15 -4 -15 -5 -2 -6 9 0 20 -15 26 -33 5 -18 15
-32 21 -30 7 1 12 -2 12 -8 0 -19 -29 -10 -35 11 -5 14 -10 18 -17 11 -6 -6 1
-32 21 -73 21 -43 25 -56 12 -41 -11 12 -21 27 -23 33 -2 5 -11 7 -20 4 -16
-6 -16 -10 -2 -43 8 -21 24 -46 35 -57 16 -16 23 -18 38 -8 15 10 20 9 25 -2
6 -16 -4 -88 -12 -80 -3 2 -11 0 -19 -6 -9 -8 -13 -8 -13 -1 0 6 5 14 10 17 6
3 10 17 10 31 0 17 -5 24 -20 24 -11 0 -28 9 -37 20 -10 11 -24 20 -33 19 -10
0 -11 -2 -2 -6 6 -2 12 -14 12 -26 0 -12 12 -35 27 -51 28 -30 22 -32 -31 -10
-15 6 -17 4 -11 -6 6 -10 4 -12 -8 -7 -10 3 -17 4 -17 0 0 -14 42 -72 56 -77
11 -4 10 1 -5 20 -30 39 -26 52 7 21 15 -15 34 -27 42 -27 8 0 3 -9 -11 -21
-25 -22 -26 -24 -28 -80 -1 -29 -6 -38 -23 -42 -12 -4 -19 -9 -16 -13 4 -3 1
-13 -7 -21 -17 -17 -20 -43 -5 -43 6 0 10 -16 10 -36 0 -20 7 -60 16 -90 15
-53 8 -94 -16 -94 -6 0 -10 -10 -10 -22 0 -47 -19 0 -30 72 -16 111 -19 120
-34 114 -8 -3 -34 18 -63 51 l-50 57 -44 -15 c-84 -29 -110 -29 -206 -4 -51
13 -102 32 -113 42 -15 13 -29 16 -57 12 -21 -4 -39 -10 -41 -15 -7 -21 -28
-43 -47 -47 -11 -2 -49 -13 -83 -24 -35 -11 -69 -18 -75 -16 -7 2 -33 6 -59 9
-43 5 -48 4 -48 -14 0 -27 44 -48 64 -31 8 7 17 8 20 3 6 -9 88 -8 231 4 39 3
113 7 165 9 52 1 110 5 128 8 17 4 32 2 32 -3 0 -6 -5 -10 -12 -10 -6 0 -3 -8
8 -18 13 -12 19 -31 19 -58 0 -21 5 -44 11 -51 12 -13 -4 -85 -17 -77 -4 2
-10 -5 -14 -16 -4 -13 1 -29 14 -46 16 -20 18 -31 10 -45 -7 -14 -6 -19 2 -19
6 0 9 -7 5 -15 -3 -9 3 -19 15 -26 16 -8 20 -17 16 -38 -5 -23 0 -32 24 -50
22 -16 29 -30 29 -55 0 -18 -6 -39 -14 -45 -8 -7 -12 -21 -8 -33 4 -15 2 -19
-8 -13 -8 5 -11 3 -8 -6 3 -8 11 -13 17 -11 9 2 9 -3 1 -18 -18 -33 -68 -80
-86 -80 -9 0 -18 -9 -21 -20 -4 -14 -11 -19 -23 -15 -10 3 -21 1 -25 -5 -3 -6
-11 -8 -16 -5 -5 4 -9 1 -9 -5 0 -8 -9 -10 -24 -6 -15 4 -30 1 -39 -8 -11 -12
-40 -14 -137 -11 -67 1 -125 7 -129 12 -6 9 -120 40 -133 35 -5 -1 -8 3 -8 8
0 6 -7 10 -15 10 -8 0 -15 6 -15 13 0 6 -12 20 -25 30 -22 15 -25 16 -25 2 0
-8 7 -15 15 -15 11 0 15 -11 15 -42 0 -42 -13 -44 -23 -3 -3 11 -5 -16 -6 -60
-1 -90 12 -109 66 -100 15 2 45 7 66 10 61 10 45 28 -18 20 -30 -3 -55 -4 -55
-1 0 3 14 13 31 21 25 13 37 14 65 5 19 -6 34 -16 34 -21 0 -5 17 -7 38 -4 28
5 46 0 72 -16 21 -13 30 -24 22 -27 -7 -2 -21 3 -31 12 -19 17 -101 23 -101 7
0 -9 -27 -14 -137 -27 l-53 -6 0 -434 c0 -367 2 -434 14 -434 8 0 23 -11 33
-24 l19 -23 23 101 c13 55 39 140 57 189 19 48 34 98 34 111 0 13 5 26 11 28
5 2 12 24 14 50 3 33 11 53 29 72 15 14 29 39 32 56 4 16 10 30 14 30 5 0 19
19 33 43 34 58 130 145 276 251 67 49 129 102 137 117 8 16 24 39 37 52 26 27
45 56 53 78 7 19 56 49 81 49 18 0 59 33 85 68 7 10 30 30 50 46 l37 28 -16
34 c-17 35 -28 35 -35 -1 -2 -12 -14 12 -30 60 -35 108 -42 145 -28 145 6 0 9
-4 6 -8 -3 -5 5 -42 18 -83 13 -41 24 -66 25 -56 1 10 5 16 10 13 11 -7 21 28
21 77 0 23 4 36 10 32 6 -3 10 4 10 15 0 19 4 21 25 16 31 -8 32 2 5 104 -22
83 -26 160 -9 160 6 0 9 7 5 15 -3 8 0 27 6 41 11 24 15 25 67 19 89 -10 91
-12 84 -48 -3 -18 -15 -40 -25 -51 -12 -11 -17 -24 -13 -35 8 -17 7 -120 -1
-132 -2 -4 4 -12 13 -18 16 -9 16 -12 3 -20 -8 -6 -11 -13 -7 -17 4 -4 2 -13
-4 -21 -8 -9 -8 -13 -1 -13 6 0 10 -6 8 -12 -1 -7 -1 -10 1 -5 3 4 14 7 25 7
18 0 18 -2 -8 -23 -16 -12 -32 -21 -35 -20 -4 1 -6 -5 -5 -15 0 -9 -5 -16 -11
-14 -7 1 -13 -5 -13 -13 0 -21 2 -20 44 20 40 38 66 44 86 20 7 -8 23 -15 36
-15 31 0 55 -26 49 -53 -4 -17 1 -25 22 -35 42 -19 48 1 12 37 -27 28 -30 34
-18 46 17 17 135 83 244 137 44 22 101 55 128 74 26 19 54 34 61 34 24 0 28
17 12 48 -20 38 -46 49 -63 26 -7 -10 -13 -26 -13 -36 0 -21 -13 -23 -29 -5
-6 8 -8 33 -4 66 l6 53 61 -7 c65 -7 76 -11 76 -26 0 -5 -22 -9 -49 -9 -28 0
-52 -3 -54 -7 -3 -5 30 -7 73 -5 86 4 101 13 149 95 l23 37 -77 35 c-42 19
-84 35 -94 35 -9 0 -36 -14 -59 -31 -38 -28 -42 -29 -42 -11 0 49 22 124 48
166 41 64 57 147 48 254 -11 125 -10 122 -30 182 -24 75 -40 197 -40 305 1
132 37 217 62 145 6 -16 16 -30 23 -30 19 0 79 -49 79 -65 0 -7 5 -15 11 -17
7 -2 7 -12 -1 -32 l-11 -29 -37 36 c-43 42 -94 51 -110 20 -12 -22 0 -106 20
-152 l16 -34 7 34 c15 74 26 109 35 109 5 0 25 -13 43 -30 19 -16 43 -30 52
-30 10 0 26 -10 36 -22 18 -20 19 -20 19 -2 0 10 4 25 9 33 12 19 75 -51 95
-104 19 -52 31 -102 34 -136 1 -9 9 -19 16 -22 10 -4 13 -1 9 9 -3 7 0 14 6
14 6 0 11 -6 11 -14 0 -20 17 -29 36 -18 14 8 14 10 -1 22 -13 11 -15 10 -9
-6 4 -14 3 -15 -4 -5 -5 7 -7 22 -4 33 4 15 7 17 13 6 6 -9 9 -9 9 -1 0 19
-18 25 -27 9 -6 -11 -13 -12 -23 -6 -13 8 -12 10 3 10 11 0 17 8 17 23 0 12 4
18 8 12 4 -5 14 -16 23 -22 17 -14 16 -17 19 52 3 63 22 159 34 167 8 5 7 8
-1 8 -7 0 -13 5 -13 11 0 5 4 8 8 5 5 -3 15 6 22 19 13 24 80 52 98 42 4 -3
17 -1 29 4 16 6 21 13 16 25 -5 14 -2 16 16 11 18 -4 21 -2 17 10 -5 11 -2 13
9 9 9 -3 13 -2 10 4 -3 5 3 17 14 27 15 13 18 20 9 30 -6 7 -8 16 -4 20 3 4
-3 16 -14 28 -12 12 -20 29 -18 36 2 8 -4 14 -13 13 -9 -1 -16 5 -16 12 0 20
23 17 33 -3 4 -10 6 -21 6 -25 -3 -12 16 -9 24 3 3 6 1 15 -5 19 -9 5 -8 10 2
19 11 9 21 9 43 0 16 -7 39 -11 50 -10 23 2 134 -24 162 -38 38 -19 70 -29
132 -40 67 -13 115 -35 105 -50 -2 -5 3 -8 12 -7 10 0 18 -6 18 -14 0 -8 9
-16 20 -19 11 -2 27 -12 36 -22 9 -11 21 -19 28 -19 6 0 11 -4 11 -10 0 -5 20
-10 45 -10 52 0 64 -16 57 -76 -4 -33 -6 -35 -31 -29 -14 4 -34 14 -43 22 -16
14 -21 14 -50 0 -59 -27 -145 -46 -135 -29 7 10 -71 7 -115 -6 -26 -7 -38 -7
-38 0 0 5 -16 1 -36 -11 -19 -12 -32 -15 -29 -9 4 7 -1 4 -9 -6 -9 -11 -37
-27 -63 -36 -54 -18 -66 -46 -20 -43 27 2 28 1 15 -18 -7 -11 -42 -30 -78 -42
-68 -23 -84 -43 -59 -73 9 -11 32 -15 93 -14 122 2 124 2 146 -22 30 -32 25
-38 -32 -39 l-53 -1 30 -13 c17 -8 26 -14 21 -15 -16 0 42 -40 59 -40 9 0 27
-11 40 -24 13 -13 27 -21 31 -17 4 3 4 0 0 -7 -4 -7 -11 -10 -16 -7 -10 6 -60
-67 -60 -87 0 -21 -109 -130 -167 -168 -29 -19 -53 -41 -53 -48 0 -7 -4 -11
-9 -8 -5 3 -12 -2 -15 -12 -10 -28 -36 -68 -36 -56 0 18 -48 13 -55 -5 -6 -14
-8 -13 -15 4 -7 16 -9 12 -9 -18 -1 -26 -5 -37 -13 -35 -7 3 -13 11 -14 19 -3
41 -6 53 -11 42 -2 -7 -8 -13 -13 -13 -13 0 -18 36 -7 55 7 13 6 16 -2 11 -6
-4 -11 0 -12 11 -1 13 -3 11 -9 -7 -4 -14 -8 -20 -9 -13 -1 7 -7 10 -15 7 -12
-5 -14 4 -13 43 2 41 -1 48 -15 45 -11 -2 -18 3 -18 13 0 8 -4 15 -10 15 -5 0
-7 6 -4 14 3 8 -3 17 -14 20 -19 6 -38 56 -21 56 5 0 5 10 0 23 -12 28 -24 61
-26 67 -2 11 -36 70 -39 70 -8 0 0 -25 17 -59 21 -41 21 -47 3 -32 -12 10 -14
5 -10 -38 3 -27 1 -52 -3 -54 -14 -9 3 -191 20 -227 9 -18 14 -37 11 -42 -3
-5 9 -34 26 -64 17 -31 33 -69 35 -85 5 -38 14 -52 31 -45 8 3 14 1 14 -4 0
-6 -8 -10 -17 -10 -15 0 -14 -2 3 -14 15 -12 17 -17 7 -27 -14 -14 -18 -43 -5
-35 5 3 14 -19 21 -49 7 -30 17 -55 22 -55 5 0 9 -9 9 -20 0 -11 4 -20 8 -20
5 0 15 -18 22 -40 7 -22 19 -45 26 -50 22 -19 4 -139 -31 -210 -17 -34 -40
-103 -37 -113 1 -4 -2 -7 -7 -7 -5 0 -8 -14 -6 -31 5 -35 54 -99 72 -94 7 3
12 1 12 -3 -3 -20 2 -32 14 -32 8 0 24 -11 37 -25 13 -14 20 -25 16 -25 -4 0
-2 -10 5 -21 8 -15 8 -19 0 -15 -6 4 -11 1 -11 -8 0 -8 -9 -17 -19 -21 -13 -4
-18 -11 -14 -22 5 -12 2 -15 -10 -10 -12 4 -17 1 -17 -11 0 -10 -3 -13 -8 -6
-9 14 -92 17 -92 3 0 -7 -23 -8 -67 -5 -69 6 -151 -12 -136 -29 5 -4 -2 -5
-14 -2 -13 3 -23 1 -23 -5 0 -5 -9 -6 -20 -3 -14 4 -20 2 -20 -9 0 -9 -6 -13
-14 -10 -11 4 -13 0 -9 -18 3 -13 2 -20 -2 -16 -8 8 -34 -20 -35 -37 0 -5 4
-4 9 4 7 10 9 7 8 -12 -1 -14 -4 -25 -7 -25 -3 0 -14 0 -25 -1 -16 -1 -17 -3
-5 -10 8 -6 18 -7 24 -4 5 3 6 1 2 -5 -4 -7 -2 -12 3 -12 6 0 11 -4 11 -10 0
-5 -7 -7 -15 -4 -27 11 -16 -6 13 -18 25 -11 25 -12 6 -15 -14 -3 -32 6 -48
21 -14 14 -32 26 -41 26 -18 0 58 -68 134 -120 28 -19 57 -40 64 -45 30 -26
185 -106 256 -134 320 -123 698 -54 879 160 67 79 130 166 137 190 8 23 32 31
56 19 25 -14 24 -45 -1 -70 -15 -15 -16 -20 -6 -20 8 0 17 8 21 19 3 10 14 26
25 36 19 17 20 17 26 0 13 -33 -91 -200 -184 -298 -83 -86 -272 -189 -395
-216 -122 -27 -293 -22 -474 14 -27 5 -27 5 -4 -5 44 -19 211 -41 319 -41 158
0 287 35 403 108 145 92 276 233 328 357 11 24 24 47 29 50 23 14 155 -54 227
-116 15 -13 48 -50 75 -83 26 -33 59 -72 73 -87 13 -15 22 -30 18 -34 -3 -4
-1 -4 5 -1 14 8 64 -30 64 -48 0 -9 6 -12 15 -9 9 4 15 0 15 -10 0 -9 4 -16 8
-16 4 0 8 -9 9 -20 2 -29 -14 -25 -21 5 -7 26 -20 32 -31 15 -3 -6 1 -10 10
-10 31 0 6 -17 -27 -18 -23 -1 -28 2 -18 8 8 6 11 10 5 10 -5 0 -3 5 5 11 12
8 11 10 -5 7 -11 -2 -19 -7 -18 -10 1 -4 -2 -21 -7 -38 -5 -19 -5 -30 1 -30 5
0 8 -12 7 -28 -2 -22 1 -27 17 -24 17 2 16 0 -5 -12 -14 -9 -19 -15 -12 -16
19 0 14 -20 -5 -21 -12 0 -13 -2 -5 -6 7 -3 19 1 28 7 12 11 13 10 8 -4 -3 -9
-9 -16 -13 -16 -4 0 -7 -9 -7 -20 0 -23 7 -25 24 -8 9 9 12 9 12 0 0 -23 -2
-27 -12 -24 -6 2 -8 -4 -5 -13 4 -8 2 -15 -3 -15 -6 0 -10 4 -10 9 0 20 -41 6
-46 -16 -4 -13 -11 -20 -18 -17 -6 3 -4 0 5 -8 12 -11 13 -17 3 -37 -9 -18 -9
-27 -1 -37 10 -10 14 -10 24 3 6 8 18 13 25 10 10 -4 10 -6 1 -6 -7 -1 -13 -8
-13 -17 0 -12 -7 -15 -25 -12 -14 3 -23 1 -22 -6 1 -6 -6 -10 -15 -10 -9 1
-19 -5 -22 -13 -4 -9 -2 -11 6 -7 7 5 9 0 6 -14 -4 -12 -1 -25 4 -29 6 -3 8
-1 4 5 -3 6 -2 13 4 17 13 8 25 -42 13 -58 -5 -6 -8 -22 -7 -35 0 -12 -2 -22
-5 -22 -4 0 -16 -7 -27 -15 -16 -13 -16 -14 -1 -9 13 5 17 1 17 -17 0 -12 -3
-20 -6 -16 -6 6 -34 -16 -34 -27 0 -3 7 -6 15 -6 18 0 20 -26 3 -33 -7 -3 40
-6 104 -6 l116 -1 -2 35 c-3 27 1 35 13 35 26 0 41 21 41 57 0 18 4 32 9 30
12 -3 13 7 5 49 -3 19 -4 37 -2 40 9 9 38 -8 38 -23 0 -8 -4 -12 -9 -8 -6 3
-9 -3 -8 -14 0 -11 6 -17 14 -14 9 3 13 -3 12 -18 0 -13 -3 -18 -6 -12 -4 10
-7 10 -16 0 -13 -13 -17 -78 -4 -70 7 4 4 -21 -10 -69 -4 -17 8 -18 160 -18
l164 0 7 128 c10 185 15 232 42 387 14 77 30 172 37 210 17 102 14 321 -6 460
-9 66 -21 146 -25 177 -11 73 2 65 28 -18 25 -82 36 -153 50 -320 13 -166 3
-265 -50 -479 -50 -203 -60 -271 -60 -422 l0 -123 315 0 315 0 0 718 c0 669
-8 977 -36 1315 -5 67 -16 98 -29 85 -3 -2 2 -112 11 -243 8 -132 14 -298 14
-370 -1 -71 2 -162 6 -201 l7 -71 -29 -8 c-48 -12 -239 -33 -245 -26 -4 3 -10
71 -14 151 -4 80 -9 161 -11 180 -2 19 -9 131 -15 248 -11 194 -11 216 4 250
14 29 14 33 2 18 -8 -11 -17 -17 -20 -14 -3 3 -8 66 -11 139 -2 74 -7 155 -10
180 -4 27 -2 49 4 53 5 3 43 8 83 11 141 11 135 8 131 62 -2 36 0 44 7 33 6
-8 11 -23 11 -32 0 -10 9 -27 19 -37 10 -10 26 -44 35 -75 15 -51 36 -76 36
-42 0 34 -45 227 -66 283 -31 84 -128 271 -159 308 -94 112 -243 210 -394 260
-44 14 -58 15 -80 5 -14 -7 -83 -15 -153 -18 -124 -5 -127 -4 -122 15 5 19 3
20 -38 12 -64 -12 -64 -12 -76 30 -19 62 -17 67 28 63 49 -5 58 10 42 77 -18
77 -30 101 -47 95 -8 -3 -15 -15 -15 -25 0 -21 -11 -24 -27 -8 -8 8 -13 8 -17
0 -11 -17 -34 -13 -45 8 -10 17 -3 20 70 37 79 18 80 18 77 48 -3 27 0 30 37
38 22 5 96 10 165 11 l125 2 -2 49 c-1 27 -6 53 -11 58 -5 5 -44 10 -86 10
-51 1 -82 6 -91 14 -9 10 -14 46 -14 123 l-1 109 27 6 c16 3 73 8 128 11 76 5
104 3 117 -7 18 -13 28 -84 32 -228 3 -65 3 -65 32 -64 16 1 49 6 74 12 l45
10 -40 2 c-90 5 -92 8 -94 98 0 42 -4 101 -7 130 l-6 52 93 1 c153 2 159 -1
159 -67 0 -24 5 -44 10 -44 6 0 8 20 4 54 -4 35 -3 56 5 60 16 10 302 14 327
5 26 -9 44 6 44 38 0 19 -5 23 -31 23 -19 0 -28 4 -23 11 3 6 17 9 30 6 l24
-4 0 105 c0 92 -2 103 -15 92 -20 -17 -91 -7 -116 16 -18 16 -21 16 -72 -10
-56 -28 -69 -27 -135 6 -18 9 -30 9 -55 -1 -18 -7 -47 -18 -64 -25 -40 -13
-42 -37 -8 -74 14 -15 25 -32 25 -39 0 -7 5 -13 10 -13 6 0 10 5 10 10 0 6 5
10 10 10 6 0 10 -9 10 -20 0 -11 5 -21 10 -21 36 -5 45 -2 48 13 2 12 -1 16
-10 13 -8 -3 -14 4 -14 20 -1 14 2 25 8 25 5 0 7 4 3 9 -3 5 0 13 6 17 8 4 9
3 5 -4 -4 -7 -3 -12 2 -12 6 0 8 -8 5 -19 -3 -10 0 -22 6 -25 13 -8 15 -46 2
-46 -5 0 -16 -11 -25 -25 -17 -25 -16 -26 6 -23 13 2 25 -1 28 -7 7 -14 -140
-19 -154 -5 -7 7 -7 10 1 10 17 0 26 56 13 80 -8 15 -17 19 -35 14 -24 -6 -24
-5 -19 47 3 30 8 57 10 61 8 12 -86 42 -98 30 -15 -15 0 -36 17 -22 18 15 39
-13 33 -45 -3 -14 -2 -27 1 -29 4 -3 8 -36 9 -73 2 -52 -1 -73 -12 -82 -22
-19 -242 -21 -283 -3 -18 8 -34 19 -34 26 -9 69 -5 163 8 178 15 16 12 17 -38
11 -30 -3 -56 -7 -58 -9 -10 -9 20 -54 35 -54 12 0 15 -6 10 -22 -3 -13 -6
-28 -6 -35 0 -7 -7 -10 -15 -7 -10 4 -15 0 -15 -11 0 -14 6 -16 26 -11 25 7
26 5 21 -23 -4 -17 -2 -31 3 -31 5 0 7 -6 4 -14 -4 -11 -16 -13 -42 -9 -20 3
-39 8 -42 10 -7 6 23 22 31 17 4 -2 10 0 14 6 4 6 -4 10 -19 10 -14 0 -28 -4
-31 -10 -11 -18 -44 -11 -56 12 -12 22 -12 22 14 5 32 -21 37 -21 37 -2 0 8 7
15 15 15 8 0 15 5 15 10 0 6 -7 10 -15 10 -8 0 -15 -4 -15 -10 0 -5 -7 -10
-15 -10 -8 0 -15 6 -15 14 0 8 -6 16 -12 19 -7 3 0 10 17 17 23 10 26 14 13
17 -10 3 -18 9 -18 14 0 6 9 7 20 4 11 -4 20 -2 20 4 0 6 -5 11 -11 11 -6 0
-17 7 -25 15 -9 8 -26 15 -40 15 -14 0 -27 7 -30 15 -6 15 -45 22 -43 8 4 -23
-4 -20 -36 12 -39 38 -61 43 -91 20 -27 -20 -43 -19 -85 11 -40 28 -93 99 -84
114 3 5 0 12 -5 15 -11 7 -29 45 -26 57 0 3 -9 17 -20 30 -13 13 -20 32 -18
46 2 12 0 22 -5 22 -5 0 -7 9 -4 20 5 20 11 21 667 20 363 0 700 0 749 0 l87
0 0 105 0 104 -923 -2 c-866 -2 -924 -1 -941 15 -9 10 -42 25 -72 34 -40 11
-54 20 -54 33 0 10 -7 24 -15 31 -12 10 -16 8 -25 -14 -5 -14 -14 -26 -20 -26
-6 0 -9 4 -6 9 3 5 -1 12 -10 15 -8 3 -13 2 -10 -2 3 -5 -18 3 -46 17 -30 15
-53 21 -55 15 -3 -10 -104 5 -130 18 -4 3 -40 -3 -80 -13z m-2638 -109 c3 -5
-1 -10 -10 -10 -9 0 -13 5 -10 10 3 6 8 10 10 10 2 0 7 -4 10 -10z m62 4 c-3
-3 -12 -4 -19 -1 -8 3 -5 6 6 6 11 1 17 -2 13 -5z m1671 -61 c-10 -2 -28 -2
-40 0 -13 2 -5 4 17 4 22 1 32 -1 23 -4z m272 -498 c-7 -8 -17 -15 -23 -15 -6
0 -2 7 9 15 25 19 30 19 14 0z m235 -85 c-4 -12 -9 -19 -12 -17 -3 3 -2 15 2
27 4 12 9 19 12 17 3 -3 2 -15 -2 -27z m2530 -27 c14 2 23 2 20 -1 -3 -3 2
-16 11 -29 8 -13 14 -38 12 -56 -3 -29 -6 -32 -38 -32 -40 0 -48 17 -48 105
-1 44 1 50 9 31 7 -18 15 -22 34 -18z m-775 -14 c0 -5 -11 -20 -25 -35 l-25
-27 2 26 c1 15 8 29 16 32 9 3 11 13 7 27 -6 22 -6 22 9 4 9 -11 16 -23 16
-27z m-1507 -19 c9 0 19 -4 22 -10 3 -6 -4 -10 -17 -10 -24 0 -61 33 -50 45 4
3 12 -1 18 -9 6 -9 18 -16 27 -16z m-73 -21 c13 -9 13 -10 -1 -6 -9 3 -22 0
-28 -6 -13 -13 -26 -3 -16 12 8 14 26 14 45 0z m48 -16 c-10 -2 -18 -9 -18
-14 0 -5 -5 -9 -11 -9 -8 0 -8 5 1 15 7 8 20 14 29 14 13 -1 13 -2 -1 -6z m42
-23 c0 -5 -5 -10 -11 -10 -5 0 -7 5 -4 10 3 6 8 10 11 10 2 0 4 -4 4 -10z m37
-8 c8 -5 9 -12 2 -22 -8 -13 -10 -13 -19 0 -18 27 -9 39 17 22z m1322 -3 c6 9
10 5 13 -17 4 -27 1 -31 -25 -36 -41 -8 -49 1 -31 36 12 24 18 28 25 17 8 -12
10 -12 18 0z m111 -34 c0 -8 -2 -15 -4 -15 -2 0 -6 7 -10 15 -3 8 -1 15 4 15
6 0 10 -7 10 -15z m-1333 -51 c-3 -3 -12 -4 -19 -1 -8 3 -5 6 6 6 11 1 17 -2
13 -5z m1288 -2 c6 -4 16 -19 24 -34 15 -30 41 -27 41 4 0 26 14 15 34 -27 13
-26 14 -40 6 -54 -7 -13 -7 -22 0 -26 5 -3 10 -28 10 -54 l0 -48 -64 -11 c-93
-18 -103 -16 -110 16 -3 15 -9 75 -12 135 l-7 107 34 0 c19 0 39 -4 44 -8z
m-1377 -9 c-10 -2 -18 -8 -18 -13 0 -4 -11 -7 -24 -6 -36 2 -14 21 26 23 18 0
25 -1 16 -4z m-98 -18 c9 -10 9 -15 1 -15 -6 0 -11 4 -11 9 0 5 -10 12 -22 14
-22 4 -22 4 -2 6 12 0 27 -6 34 -14z m-103 -11 c-3 -3 -12 -4 -19 -1 -8 3 -5
6 6 6 11 1 17 -2 13 -5z m1472 -38 c7 -12 13 -53 14 -91 2 -66 1 -69 -28 -86
-73 -43 -110 -14 -99 80 5 47 11 61 29 71 13 7 28 23 34 36 12 27 33 24 50
-10z m-1465 -5 c4 -5 -3 -7 -14 -4 -23 6 -26 13 -6 13 8 0 17 -4 20 -9z m149
-18 c-7 -2 -19 -2 -25 0 -7 3 -2 5 12 5 14 0 19 -2 13 -5z m-1063 -33 c0 -5
-7 -10 -15 -10 -8 0 -15 5 -15 10 0 6 7 10 15 10 8 0 15 -4 15 -10z m-25 -38
c-3 -3 -11 0 -18 7 -9 10 -8 11 6 5 10 -3 15 -9 12 -12z m1 -79 c15 -20 21
-33 13 -28 -23 13 -59 48 -59 57 0 18 19 6 46 -29z m64 7 c-9 -6 -9 -9 0 -15
7 -4 17 -1 22 6 8 11 8 10 4 -4 -3 -10 -6 -24 -6 -30 0 -7 -7 -3 -16 8 -8 11
-17 19 -19 18 -11 -6 -25 -2 -25 7 0 6 7 10 16 10 8 0 12 4 9 10 -3 6 1 7 10
3 12 -4 13 -8 5 -13z m2555 -41 c4 -6 14 -8 23 -4 14 5 135 9 184 6 11 -1 15
-7 11 -21 -4 -16 -12 -19 -32 -16 -14 2 -27 5 -28 6 -2 2 -6 3 -10 4 -5 1 -14
5 -22 10 -8 5 -16 4 -21 -4 -5 -9 -23 -11 -54 -8 -25 3 -46 2 -46 -3 0 -4 -22
-8 -50 -7 -36 0 -50 4 -50 14 0 8 5 14 10 14 6 0 10 -4 10 -10 0 -5 5 -10 11
-10 6 0 8 8 5 18 -6 16 -5 16 7 0 9 -11 18 -14 28 -7 12 8 12 10 -1 19 -13 8
-13 10 2 10 9 0 20 -5 23 -11z m-138 -62 c2 -32 -1 -57 -7 -57 -5 0 -7 -6 -4
-14 4 -10 -9 -17 -47 -25 -28 -6 -54 -10 -56 -8 -2 3 -11 32 -19 66 -15 60
-15 63 4 79 14 12 36 17 73 17 l54 -1 2 -57z m-2594 33 c-12 -10 -96 -30 -103
-24 -3 3 3 11 13 18 18 14 105 19 90 6z m1024 -4 c0 -8 -6 -12 -15 -9 -11 5
-11 7 0 14 7 5 13 9 14 9 0 0 1 -6 1 -14z m-977 -30 c0 -6 14 -17 31 -25 35
-15 35 -21 -1 -14 -40 7 -74 38 -66 58 5 14 9 15 21 5 8 -7 15 -18 15 -24z
m135 -14 c-3 -3 -11 0 -18 7 -9 10 -8 11 6 5 10 -3 15 -9 12 -12z m926 -22 c5
0 9 -4 9 -10 0 -12 -30 -13 -48 -1 -11 6 -10 12 5 26 16 17 18 17 21 2 2 -9 8
-17 13 -17z m-1041 -20 c8 -5 11 -10 5 -10 -5 0 -17 5 -25 10 -8 5 -10 10 -5
10 6 0 17 -5 25 -10z m96 -2 c5 -7 2 -9 -9 -5 -9 3 -17 1 -19 -5 -2 -6 -10 -8
-16 -4 -7 4 -10 12 -7 17 9 13 42 11 51 -3z m-81 -49 c16 -16 -19 -9 -40 7
-19 16 -19 16 5 9 14 -4 29 -11 35 -16z m2316 -91 c-7 -33 -7 -33 -20 -10 -6
12 -17 20 -23 16 -7 -4 -8 -3 -4 4 4 7 2 12 -5 12 -15 0 -4 61 13 72 20 12 47
-54 39 -94z m-1614 -110 c-3 -8 -6 -5 -6 6 -1 11 2 17 5 13 3 -3 4 -12 1 -19z
m1545 -63 c-2 -14 -11 -25 -18 -25 -17 0 -18 22 -2 38 19 19 26 14 20 -13z
m-1482 -78 c0 -5 -4 -5 -10 -2 -5 3 -10 14 -10 23 0 15 2 15 10 2 5 -8 10 -19
10 -23z m-943 1 c-3 -8 -6 -5 -6 6 -1 11 2 17 5 13 3 -3 4 -12 1 -19z m3031
-7 c83 -19 221 -71 255 -96 15 -10 19 -33 24 -117 l6 -105 -144 -7 c-79 -3
-201 -9 -270 -13 l-126 -6 -21 89 c-25 101 -54 246 -50 249 4 3 175 22 213 23
17 1 67 -7 113 -17z m-621 -173 c-2 -24 -4 -7 -4 37 0 44 2 63 4 43 2 -21 2
-57 0 -80z m-356 33 c18 -17 24 -57 35 -213 6 -88 5 -102 -16 -145 -12 -26
-31 -67 -41 -89 -22 -52 -34 -60 -64 -40 -13 9 -68 33 -122 55 -77 30 -103 45
-120 71 -30 43 -29 69 3 115 l25 38 -44 -6 c-39 -5 -46 -4 -50 13 -5 20 23 37
42 26 11 -7 71 13 71 24 0 4 25 20 55 36 31 15 79 53 109 85 57 61 79 66 117
30z m-2218 -1 c3 -11 1 -20 -4 -20 -5 0 -9 2 -9 4 0 2 -3 11 -6 20 -3 9 -2 16
4 16 5 0 12 -9 15 -20z m22 -110 c-3 -19 -7 -61 -10 -94 -5 -69 -14 -85 -17
-30 -4 109 -3 151 5 168 14 28 27 1 22 -44z m139 54 c9 -3 14 -10 11 -15 -7
-10 -35 0 -35 12 0 11 3 11 24 3z m86 -14 c0 -5 -5 -10 -11 -10 -5 0 -7 5 -4
10 3 6 8 10 11 10 2 0 4 -4 4 -10z m-2 -34 c6 -4 9 -13 6 -20 -3 -8 -1 -17 5
-21 20 -12 13 -38 -10 -32 -16 4 -18 3 -9 -8 6 -8 25 -17 41 -20 50 -11 21
-25 -37 -19 -48 6 -54 5 -48 -10 8 -20 -6 -21 -32 -2 -16 13 -17 18 -6 35 7
12 8 21 3 21 -13 0 -41 29 -41 42 0 6 15 7 41 3 29 -5 40 -4 35 4 -4 6 -13 11
-19 11 -7 0 -21 7 -32 16 -18 14 -16 15 36 11 31 -3 62 -7 67 -11z m2319 -53
c-3 -10 -5 -4 -5 12 0 17 2 24 5 18 2 -7 2 -21 0 -30z m-2663 1 c3 -8 2 -12
-4 -9 -6 3 -10 10 -10 16 0 14 7 11 14 -7z m407 -22 c-7 -2 -18 1 -23 6 -8 8
-4 9 13 5 13 -4 18 -8 10 -11z m782 -22 c3 -11 1 -20 -4 -20 -5 0 -9 2 -9 4 0
2 -3 11 -6 20 -3 9 -2 16 4 16 5 0 12 -9 15 -20z m1456 -37 c-6 -21 -23 -60
-37 -88 -43 -83 -38 -25 5 64 39 81 55 92 32 24z m-2269 -20 c0 -14 -13 -16
-47 -7 -34 9 -28 19 12 19 21 0 35 -5 35 -12z m2718 -26 c6 2 9 -4 6 -12 -4
-9 0 -23 7 -33 13 -15 12 -16 -3 -3 -12 9 -18 10 -18 2 0 -6 -4 -11 -10 -11
-6 0 -10 24 -9 53 1 39 3 46 8 27 4 -14 13 -24 19 -23z m276 9 c-3 -15 1 -29
11 -40 15 -15 15 -17 0 -22 -21 -8 -23 -6 -25 36 -3 52 -1 62 10 55 6 -3 7
-17 4 -29z m-2188 -11 c-6 -18 -26 -11 -26 8 0 7 4 6 10 -3 8 -13 10 -12 10 4
0 11 3 17 6 13 4 -3 4 -13 0 -22z m2101 5 c6 -22 6 -22 27 -14 21 8 20 21 -1
27 -14 4 -13 5 3 6 24 1 34 -16 34 -55 0 -22 -4 -25 -32 -22 -27 2 -34 8 -38
31 -7 40 -24 38 -29 -3 l-4 -35 -6 29 c-9 43 -31 45 -32 4 0 -18 -3 -27 -6
-20 -4 10 -9 9 -24 -4 -15 -14 -21 -15 -34 -4 -9 8 -15 25 -13 39 3 23 8 26
40 26 20 1 39 3 42 5 2 3 19 6 36 7 25 2 33 -2 37 -17z m-2967 -12 c18 -20 19
-23 5 -26 -8 -2 -14 -11 -13 -19 2 -9 -3 -18 -9 -20 -8 -3 -13 4 -13 19 0 13
-3 33 -6 46 -4 13 -2 22 4 22 6 0 21 -10 32 -22z m910 -24 c0 -2 -9 -4 -21 -4
-11 0 -18 4 -14 10 5 8 35 3 35 -6z m0 -52 c0 -14 2 -14 9 -3 7 10 9 7 8 -12
-2 -27 -23 -39 -25 -14 0 6 -4 23 -8 36 -5 17 -4 22 4 17 7 -4 12 -15 12 -24z
m-920 -28 c0 -8 -6 -11 -15 -8 -8 4 -15 12 -15 20 0 8 6 11 15 8 8 -4 15 -12
15 -20z m962 -10 c-9 -16 -10 -14 -9 8 1 15 6 23 11 18 4 -4 4 -16 -2 -26z
m-1223 -4 c5 -17 6 -28 1 -25 -4 3 -10 -1 -13 -7 -8 -25 -17 -1 -11 30 4 18 8
32 9 32 2 0 8 -14 14 -30z m2368 -2 c-3 -7 -5 -2 -5 12 0 14 2 19 5 13 2 -7 2
-19 0 -25z m-2140 -20 c-3 -8 -6 -5 -6 6 -1 11 2 17 5 13 3 -3 4 -12 1 -19z
m3191 -1 c2 -9 -1 -17 -7 -17 -6 0 -11 -9 -11 -19 0 -25 -17 -30 -110 -30 -41
-1 -90 -4 -108 -7 -18 -4 -63 -3 -100 1 l-67 8 58 12 c66 14 84 25 41 25 -16
0 -35 4 -42 9 -15 9 36 18 153 27 38 3 70 6 71 7 1 1 29 2 61 1 46 0 59 -3 61
-17z m-368 -17 c0 -5 -7 -10 -15 -10 -8 0 -15 5 -15 10 0 6 7 10 15 10 8 0 15
-4 15 -10z m-3009 -113 c-17 -17 -24 -1 -9 22 11 18 14 19 16 5 2 -9 -1 -21
-7 -27z m3105 18 c-21 -16 -44 -19 -70 -9 -29 11 -6 24 42 24 44 -1 46 -2 28
-15z m-1646 -4 c0 -6 -4 -13 -10 -16 -5 -3 -10 1 -10 9 0 9 5 16 10 16 6 0 10
-4 10 -9z m1990 -95 c0 -30 16 -42 35 -26 36 30 43 7 51 -167 11 -235 9 -349
-5 -345 -16 3 -14 -7 5 -26 11 -10 13 -17 5 -20 -6 -2 -11 -13 -11 -25 0 -19
-3 -17 -21 12 -15 24 -23 63 -30 144 -5 61 -11 113 -14 115 -2 2 -41 5 -87 6
l-83 1 -11 34 c-6 19 -25 47 -43 63 -25 23 -41 28 -80 28 -41 0 -53 -4 -69
-25 -12 -15 -23 -21 -27 -15 -13 22 -33 8 -41 -27 l-7 -38 -8 45 c-13 78 -11
250 4 250 6 0 53 5 102 11 101 12 241 25 298 28 33 1 37 -2 37 -23z m-2766
-72 c20 -8 21 -34 2 -34 -7 0 -16 9 -19 20 -6 22 -5 23 17 14z m1184 -35 c24
-12 46 -28 49 -36 6 -16 -21 -40 -57 -50 -14 -3 -30 -12 -35 -20 -11 -15 -69
-8 -83 11 -5 6 -12 30 -15 54 -9 74 41 89 141 41z m-2145 -34 c-3 -13 -53 -20
-53 -7 0 15 13 23 35 20 11 -2 19 -7 18 -13z m2468 -12 c-12 -20 -14 -14 -5
12 4 9 9 14 11 11 3 -2 0 -13 -6 -23z m-2299 -25 c-6 -6 -15 -8 -19 -4 -4 4
-1 11 7 16 8 5 17 7 19 4 3 -2 -1 -10 -7 -16z m-204 -38 c-7 -10 -16 -17 -20
-14 -4 3 -2 13 4 24 7 10 16 17 20 14 4 -3 2 -13 -4 -24z m188 -35 c6 -34 1
-55 -11 -43 -3 3 -9 22 -12 42 -8 48 14 48 23 1z m-353 -30 c-3 -9 -8 -14 -10
-11 -3 3 -2 9 2 15 9 16 15 13 8 -4z m597 1 c0 -3 -4 -8 -10 -11 -5 -3 -10 -1
-10 4 0 6 5 11 10 11 6 0 10 -2 10 -4z m-251 -81 l0 -20 -9 20 c-5 11 -9 29
-9 40 l0 20 9 -20 c5 -11 9 -29 9 -40z m1910 25 c6 0 11 -9 11 -19 0 -10 7
-22 16 -25 11 -4 15 -2 11 7 -10 26 7 39 37 27 15 -5 38 -10 52 -10 13 0 24
-2 24 -4 0 -2 3 -11 6 -19 5 -13 -9 -22 -55 -32 -8 -2 -17 -8 -20 -14 -13 -21
-71 7 -71 35 0 7 -10 20 -22 28 -12 9 -19 16 -15 16 4 0 3 10 -3 23 -10 20
-10 20 3 5 8 -10 19 -18 26 -18z m-53 -5 c-3 -8 -1 -15 5 -15 6 0 7 -5 3 -11
-4 -8 -9 -7 -15 2 -12 19 -11 39 2 39 6 0 9 -7 5 -15z m-1836 -55 c0 -5 -4
-10 -10 -10 -5 0 -10 5 -10 10 0 6 5 10 10 10 6 0 10 -4 10 -10z m3340 -30 c0
-5 -4 -10 -10 -10 -5 0 -10 5 -10 10 0 6 5 10 10 10 6 0 10 -4 10 -10z m-3548
-230 c-11 -14 -19 -17 -27 -9 -7 7 -4 15 9 24 26 20 39 9 18 -15z m3913 -297
c-6 -16 -27 -7 -23 10 1 7 -4 30 -10 51 -9 31 -9 43 1 54 10 12 14 5 25 -43 7
-32 10 -65 7 -72z m-4310 -63 c-3 -5 -14 -10 -23 -9 -14 0 -13 2 3 9 27 11 27
11 20 0z m2499 -72 c27 -6 58 -16 70 -22 48 -26 49 -27 25 -52 -16 -17 -18
-24 -8 -24 10 -1 8 -5 -6 -16 -17 -13 -18 -16 -5 -24 9 -6 10 -10 3 -10 -6 0
-13 -12 -15 -27 -2 -17 -9 -28 -18 -28 -16 0 -41 -26 -34 -36 2 -4 -3 -12 -11
-19 -13 -11 -14 -10 -9 4 4 12 1 16 -14 16 -12 0 -24 -5 -28 -12 -5 -7 -10 -3
-16 12 -7 18 -11 21 -20 12 -17 -17 -22 -57 -6 -45 7 5 23 10 34 11 17 0 21
-4 16 -20 -4 -16 -1 -20 9 -16 22 8 65 18 51 12 -6 -3 -10 -10 -6 -15 3 -5 0
-9 -6 -9 -6 0 -10 -8 -7 -17 2 -10 -3 -30 -10 -45 -8 -17 -9 -28 -3 -28 5 0
10 -5 10 -11 0 -8 -4 -8 -14 0 -13 11 -50 5 -42 -8 2 -3 -7 -7 -20 -7 -27 -2
-32 17 -9 36 18 15 19 38 4 77 -7 18 -13 23 -18 15 -5 -8 -17 -2 -41 19 -32
29 -34 30 -47 13 -7 -10 -13 -28 -13 -41 0 -30 -12 -29 -27 2 -9 20 -8 25 3
25 8 0 14 9 14 20 0 14 7 20 23 20 18 0 19 2 7 10 -11 7 -19 5 -32 -10 -17
-21 -38 -27 -38 -11 0 5 7 12 16 15 11 4 14 16 10 50 -5 38 -3 46 14 51 11 4
18 11 15 16 -4 5 -1 9 4 9 6 0 10 6 9 13 -2 7 7 12 20 11 26 -1 27 2 6 23 -14
15 -13 17 13 29 15 7 24 13 20 13 -4 1 -3 10 3 21 11 21 20 21 124 -2z m-324
-147 c0 -10 -7 -24 -15 -31 -12 -10 -13 -16 -4 -26 9 -11 6 -14 -14 -14 -30 0
-40 -20 -18 -37 14 -11 13 -12 -6 -13 -15 0 -23 6 -23 17 0 12 -3 14 -11 6 -8
-8 -6 -18 5 -36 15 -22 15 -25 2 -30 -9 -4 -22 1 -31 9 -22 23 -18 40 5 19 11
-10 20 -13 20 -7 0 6 -9 18 -21 26 -12 8 -18 19 -14 25 11 19 -3 12 -25 -11
-15 -15 -21 -18 -19 -8 1 8 -4 27 -11 43 -15 32 -7 45 30 49 14 2 27 6 30 10
9 12 79 17 86 7 9 -15 24 0 17 18 -4 11 -3 14 5 9 7 -4 12 -15 12 -25z m-190
-111 c-8 -5 -17 -7 -19 -4 -3 3 1 9 9 14 8 5 17 7 19 4 3 -3 -1 -9 -9 -14z
m200 -5 c7 -8 8 -15 2 -15 -5 0 -15 7 -22 15 -7 8 -8 15 -2 15 5 0 15 -7 22
-15z m-140 -41 c0 -20 -7 -17 -20 6 -9 16 -8 18 5 14 8 -4 15 -12 15 -20z
m315 0 c14 -15 25 -23 25 -19 0 4 7 2 15 -5 19 -16 20 -41 1 -34 -9 3 -12 12
-9 21 4 11 2 14 -5 9 -7 -4 -12 -14 -12 -21 0 -9 -6 -12 -16 -8 -11 4 -12 9
-5 16 6 6 11 15 11 21 0 5 -3 6 -7 3 -3 -4 -12 1 -19 11 -12 16 -13 15 -14 -5
0 -12 -4 -24 -8 -27 -6 -4 -7 15 -3 57 2 15 23 6 46 -19z m-105 -14 c0 -5 -4
-10 -10 -10 -5 0 -10 5 -10 10 0 6 5 10 10 10 6 0 10 -4 10 -10z m-120 -21 c0
-5 -4 -9 -10 -9 -5 0 -10 7 -10 16 0 8 5 12 10 9 6 -3 10 -10 10 -16z m-2466
-4 c11 -8 18 -17 15 -19 -2 -2 -15 4 -28 15 -27 22 -15 26 13 4z m2496 11 c0
-3 -4 -8 -10 -11 -5 -3 -10 -1 -10 4 0 6 5 11 10 11 6 0 10 -2 10 -4z m-71
-61 c0 -5 -4 -2 -10 8 -6 9 -14 15 -19 12 -7 -4 -7 5 0 35 1 8 29 -44 29 -55z
m101 51 c0 -2 -7 -7 -16 -10 -8 -3 -12 -2 -9 4 6 10 25 14 25 6z m60 0 c0 -11
-19 -15 -25 -6 -3 5 1 10 9 10 9 0 16 -2 16 -4z m-40 -36 c0 -4 -6 -12 -13
-18 -10 -8 -13 -6 -13 7 0 10 6 18 13 18 7 0 13 -4 13 -7z m136 -15 c2 -30
-11 -33 -19 -5 -3 10 0 21 7 24 6 2 11 5 11 5 0 1 1 -10 1 -24z m-102 0 c-5
-11 -2 -13 10 -9 10 4 18 0 22 -10 9 -23 -2 -32 -20 -17 -11 9 -15 9 -19 -1
-3 -10 -8 -10 -17 -2 -9 9 -8 16 6 33 22 25 25 26 18 6z m64 -20 c6 -13 8 -26
4 -29 -5 -3 -13 8 -19 25 -14 35 -1 39 15 4z m209 3 c-3 -8 -6 -5 -6 6 -1 11
2 17 5 13 3 -3 4 -12 1 -19z m-143 -50 c-3 -47 -3 -48 -15 -48 -6 0 -9 9 -6
20 3 11 1 18 -4 14 -5 -3 -9 0 -9 7 0 8 -4 8 -13 1 -9 -8 -17 -8 -27 0 -12 8
-12 9 3 4 11 -4 20 1 24 12 9 22 36 43 43 31 3 -4 5 -23 4 -41z m46 12 c0 -4
-6 -13 -14 -19 -10 -9 -15 -8 -19 3 -3 8 -4 16 -1 18 7 7 34 5 34 -2z m-140
-46 c0 -8 -19 -13 -24 -6 -3 5 1 9 9 9 8 0 15 -2 15 -3z m-2607 -111 c-7 -2
-19 -2 -25 0 -7 3 -2 5 12 5 14 0 19 -2 13 -5z m3926 -5 c-3 -27 1 -39 12 -32
7 4 10 2 8 -5 -3 -7 -8 -12 -12 -12 -4 1 -17 1 -30 1 -12 0 -28 9 -35 21 -17
27 -10 34 20 18 21 -11 22 -11 9 4 -12 15 -11 17 8 17 12 0 21 -6 20 -12z m49
-43 c-3 -3 -9 2 -12 12 -6 14 -5 15 5 6 7 -7 10 -15 7 -18z m115 -25 c3 -11 1
-18 -4 -14 -5 3 -9 12 -9 20 0 20 7 17 13 -6z m-141 -8 c5 -5 -5 -7 -22 -4
-16 2 -30 8 -30 13 0 10 40 3 52 -9z m225 -204 c-3 -8 -6 -5 -6 6 -1 11 2 17
5 13 3 -3 4 -12 1 -19z m-312 -8 c-3 -5 -10 -10 -16 -10 -5 0 -9 5 -9 10 0 6
7 10 16 10 8 0 12 -4 9 -10z m180 -70 c3 -5 1 -10 -4 -10 -6 0 -11 5 -11 10 0
6 2 10 4 10 3 0 8 -4 11 -10z m-212 -15 c0 -6 -7 -11 -16 -13 -12 -3 -15 1
-11 13 7 17 25 17 27 0z m180 -165 c-3 -11 -7 -20 -9 -20 -2 0 -4 9 -4 20 0
11 4 20 9 20 5 0 7 -9 4 -20z"/>
<path d="M4850 4100 c0 -5 7 -10 16 -10 8 0 12 5 9 10 -3 6 -10 10 -16 10 -5
0 -9 -4 -9 -10z"/>
<path d="M4150 2947 c0 -37 4 -67 10 -67 9 0 3 118 -6 129 -2 2 -4 -26 -4 -62z"/>
<path d="M4191 2987 c17 -32 19 -33 19 -10 0 12 -7 23 -15 27 -13 5 -14 2 -4
-17z"/>
<path d="M4238 2953 c2 -32 8 -62 14 -68 6 -7 8 7 4 40 -2 28 -5 58 -5 68 -1
9 -4 17 -8 17 -5 0 -6 -26 -5 -57z"/>
<path d="M4277 2990 c3 -11 7 -20 9 -20 2 0 4 9 4 20 0 11 -4 20 -9 20 -5 0
-7 -9 -4 -20z"/>
<path d="M4357 2954 c-16 -31 -25 -59 -22 -62 6 -7 4 -10 38 61 15 31 23 57
19 57 -4 0 -20 -25 -35 -56z"/>
<path d="M4286 2935 c8 -13 12 -30 8 -36 -4 -8 -3 -9 4 -5 15 9 15 39 0 54
-21 21 -29 13 -12 -13z"/>
<path d="M4187 2704 c-16 -16 -7 -44 14 -44 15 0 20 5 17 22 -3 22 -19 33 -31
22z"/>
<path d="M4350 2675 c0 -8 5 -15 10 -15 6 0 10 7 10 15 0 8 -4 15 -10 15 -5 0
-10 -7 -10 -15z"/>
<path d="M4275 2529 c-40 -6 -39 -6 13 -8 51 -1 65 3 40 11 -7 2 -31 1 -53 -3z"/>
<path d="M4380 2531 c8 -5 35 -5 60 -1 l45 7 -60 1 c-37 1 -54 -2 -45 -7z"/>
<path d="M4463 2123 c-20 -7 -15 -23 7 -23 11 0 20 4 20 9 0 13 -12 19 -27 14z"/>
<path d="M4405 2109 c-4 -6 -4 -13 -1 -16 8 -8 36 5 36 17 0 13 -27 13 -35 -1z"/>
<path d="M2769 1133 c-7 -51 -7 -64 3 -61 13 5 18 57 6 64 -4 3 -9 2 -9 -3z"/>
<path d="M2832 1084 c13 -27 23 -31 31 -11 7 18 -4 32 -25 33 -14 1 -15 -2 -6
-22z"/>
<path d="M2927 1094 c-4 -4 -7 -16 -7 -27 0 -17 2 -18 17 -6 9 8 19 13 22 12
3 -2 6 3 6 9 0 14 -27 22 -38 12z"/>
<path d="M2877 1054 c2 -7 11 -10 19 -7 19 7 18 10 -5 16 -13 3 -18 1 -14 -9z"/>
<path d="M2768 1033 c7 -3 16 -2 19 1 4 3 -2 6 -13 5 -11 0 -14 -3 -6 -6z"/>
<path d="M2869 947 c-1 -4 -2 -10 -3 -14 -1 -5 -4 -12 -7 -18 -4 -5 -9 -22
-13 -37 -5 -22 -3 -26 8 -22 22 8 41 73 27 87 -6 6 -12 8 -12 4z"/>
<path d="M2525 1070 c3 -5 11 -10 16 -10 6 0 7 5 4 10 -3 6 -11 10 -16 10 -6
0 -7 -4 -4 -10z"/>
<path d="M541 4893 c-1 -26 -41 -37 -103 -28 -24 4 -54 2 -68 -4 l-25 -10 25
-2 c14 -1 116 0 228 1 153 2 202 -1 202 -10 0 -8 9 -10 25 -6 18 5 27 2 31 -9
9 -23 21 -18 37 13 l14 29 -178 -5 -177 -5 -5 29 c-3 20 -4 23 -6 7z"/>
<path d="M4451 4874 c0 -11 3 -14 6 -6 3 7 2 16 -1 19 -3 4 -6 -2 -5 -13z"/>
<path d="M1436 4872 c-5 -8 -40 -12 -103 -12 -53 0 -94 -2 -91 -5 2 -3 42 -7
89 -9 46 -3 91 -7 100 -11 21 -8 29 4 19 29 -4 14 -9 16 -14 8z"/>
<path d="M940 4860 c0 -5 9 -10 19 -10 11 0 23 5 26 10 4 6 -5 10 -19 10 -14
0 -26 -4 -26 -10z"/>
<path d="M1039 4860 l-24 -6 25 -5 c27 -4 191 5 175 11 -19 6 -151 6 -176 0z"/>
<path d="M1640 4860 c0 -5 12 -10 28 -10 21 0 24 2 12 10 -20 13 -40 13 -40 0z"/>
<path d="M1705 4860 c-7 -12 2 -12 30 0 19 8 19 9 -2 9 -12 1 -25 -3 -28 -9z"/>
<path d="M1473 4840 c1 -22 13 -27 19 -9 2 7 33 15 68 19 l65 7 -77 2 c-71 1
-77 0 -75 -19z"/>
<path d="M1860 4840 c0 -11 1 -20 3 -20 1 0 10 9 20 20 16 19 16 20 -3 20 -13
0 -20 -7 -20 -20z"/>
<path d="M1958 4853 c6 -2 18 -2 25 0 6 3 1 5 -13 5 -14 0 -19 -2 -12 -5z"/>
<path d="M248 4833 c7 -3 16 -2 19 1 4 3 -2 6 -13 5 -11 0 -14 -3 -6 -6z"/>
<path d="M468 4833 c7 -3 16 -2 19 1 4 3 -2 6 -13 5 -11 0 -14 -3 -6 -6z"/>
<path d="M1090 4814 c0 -8 5 -12 10 -9 6 3 10 10 10 16 0 5 -4 9 -10 9 -5 0
-10 -7 -10 -16z"/>
<path d="M4830 4520 c-12 -7 -10 -9 8 -7 12 0 22 5 22 9 0 11 -12 10 -30 -2z"/>
<path d="M4815 4433 c1 -46 18 -103 30 -103 4 0 3 5 -1 11 -4 7 0 9 12 5 15
-5 21 1 30 29 9 27 8 37 -2 46 -9 8 -11 17 -4 29 12 23 4 30 -35 30 -32 0 -32
0 -30 -47z m48 -20 c-7 -2 -19 -2 -25 0 -7 3 -2 5 12 5 14 0 19 -2 13 -5z"/>
<path d="M4084 4225 c-18 -13 -18 -14 6 -8 14 3 22 2 18 -2 -11 -12 11 -45 26
-39 8 3 16 14 19 24 3 14 1 17 -11 13 -11 -5 -14 -2 -9 10 8 22 -21 23 -49 2z"/>
<path d="M4395 4180 c3 -5 8 -10 11 -10 2 0 4 5 4 10 0 6 -5 10 -11 10 -5 0
-7 -4 -4 -10z"/>
<path d="M4917 3936 c-4 -10 -1 -13 9 -9 15 6 19 23 5 23 -5 0 -11 -7 -14 -14z"/>
<path d="M1500 3930 c0 -5 5 -10 11 -10 5 0 7 5 4 10 -3 6 -8 10 -11 10 -2 0
-4 -4 -4 -10z"/>
<path d="M1530 3926 c0 -8 -9 -17 -19 -21 -11 -3 -25 -13 -33 -22 -9 -12 -2
-10 30 6 42 21 51 34 32 46 -5 3 -10 -1 -10 -9z"/>
<path d="M4970 3895 c0 -15 -6 -25 -15 -25 -9 0 -12 6 -9 15 8 21 -8 19 -34
-5 -12 -12 -28 -17 -38 -13 -13 5 -15 2 -9 -18 5 -13 8 -30 8 -36 0 -7 9 -13
19 -13 11 0 18 -7 18 -19 0 -33 24 -44 65 -31 19 6 33 15 30 20 -3 5 -1 12 5
15 8 5 8 11 1 19 -7 8 -7 24 0 50 9 32 8 40 -8 52 -26 19 -33 17 -33 -11z"/>
<path d="M1568 3899 c-2 -6 -11 -11 -20 -13 -9 -1 -26 -10 -37 -20 -11 -10
-25 -15 -30 -11 -6 3 -11 2 -11 -4 0 -19 20 -22 47 -8 16 8 40 20 56 27 15 8
27 17 27 21 0 11 -28 19 -32 8z"/>
<path d="M4780 3899 c0 -5 5 -7 10 -4 6 3 10 8 10 11 0 2 -4 4 -10 4 -5 0 -10
-5 -10 -11z"/>
<path d="M1367 3795 c-4 -9 -1 -18 9 -22 22 -8 30 5 12 23 -14 14 -16 14 -21
-1z"/>
<path d="M4739 3805 c-3 -5 -3 -23 0 -40 4 -16 9 -25 12 -20 3 6 3 24 0 40 -4
17 -9 26 -12 20z"/>
<path d="M1354 3739 c-8 -13 25 -24 37 -12 7 7 3 12 -10 16 -12 3 -24 1 -27
-4z"/>
<path d="M1408 3703 c7 -3 16 -2 19 1 4 3 -2 6 -13 5 -11 0 -14 -3 -6 -6z"/>
<path d="M4743 3689 c-5 -16 -12 -20 -35 -17 -18 3 -25 1 -19 -5 6 -6 29 -6
58 -2 26 5 40 10 30 13 -11 2 -16 10 -13 18 3 8 1 14 -5 14 -6 0 -13 -9 -16
-21z"/>
<path d="M4933 3702 c-13 -2 -23 -8 -23 -14 0 -5 -7 -8 -15 -5 -8 4 -17 2 -20
-3 -4 -6 -11 -10 -16 -10 -6 0 -8 4 -5 9 3 4 -6 6 -20 3 -48 -9 -8 -23 67 -24
41 0 80 1 88 3 11 3 17 -9 22 -44 8 -52 19 -74 19 -39 0 11 5 24 10 27 15 9
12 25 -5 25 -8 0 -15 6 -15 14 0 10 9 14 26 13 28 -2 39 10 26 29 -7 12 -99
22 -139 16z m117 -22 c0 -5 -2 -10 -4 -10 -3 0 -8 5 -11 10 -3 6 -1 10 4 10 6
0 11 -4 11 -10z"/>
<path d="M5088 3703 c6 -2 18 -2 25 0 6 3 1 5 -13 5 -14 0 -19 -2 -12 -5z"/>
<path d="M4480 3620 c0 -5 5 -10 10 -10 6 0 10 5 10 10 0 6 -4 10 -10 10 -5 0
-10 -4 -10 -10z"/>
<path d="M4678 3519 c0 -19 0 -44 1 -56 2 -29 -16 -30 -70 -4 -22 11 -54 23
-72 26 -18 4 -42 13 -54 21 -21 13 -22 13 -14 -8 4 -13 17 -24 29 -26 24 -4
37 -31 22 -46 -12 -12 -13 -56 -2 -74 10 -15 71 -34 85 -25 5 3 7 30 5 59 -3
30 -1 54 4 54 15 0 158 -68 210 -101 28 -16 52 -28 55 -25 3 2 -5 10 -17 16
-17 9 -19 14 -9 26 9 11 7 14 -12 15 -39 2 -43 3 -87 24 -47 22 -64 53 -60
108 1 20 -1 39 -5 43 -4 4 -8 -8 -9 -27z"/>
<path d="M5085 3493 c8 -31 13 -39 20 -31 9 9 -6 58 -17 58 -6 0 -7 -11 -3
-27z"/>
<path d="M4400 3500 c0 -5 5 -10 11 -10 5 0 7 5 4 10 -3 6 -8 10 -11 10 -2 0
-4 -4 -4 -10z"/>
<path d="M5021 3484 c0 -11 3 -14 6 -6 3 7 2 16 -1 19 -3 4 -6 -2 -5 -13z"/>
<path d="M4397 3450 c-3 -14 -8 -73 -12 -132 -5 -104 -5 -108 15 -108 33 0 40
38 25 131 -8 46 -16 95 -18 109 l-3 25 -7 -25z"/>
<path d="M1206 3431 c-5 -8 -3 -17 5 -22 17 -11 39 -12 23 -1 -6 4 -13 14 -16
22 -3 11 -6 11 -12 1z"/>
<path d="M5085 3396 c-16 -17 -6 -46 16 -46 12 0 19 7 19 19 0 25 -22 43 -35
27z"/>
<path d="M1430 3396 c0 -3 14 -12 30 -21 17 -9 30 -13 30 -11 0 3 -13 12 -30
21 -16 9 -30 13 -30 11z"/>
<path d="M1290 3371 c0 -5 7 -11 15 -15 8 -3 15 -1 15 3 0 5 -7 11 -15 15 -8
3 -15 1 -15 -3z"/>
<path d="M4876 3365 c-2 -6 8 -12 22 -13 14 -1 30 -8 34 -15 6 -9 10 -9 18 3
5 8 5 19 1 23 -13 13 -70 15 -75 2z"/>
<path d="M1234 3359 c3 -16 44 -31 51 -19 4 6 -5 10 -19 10 -13 0 -27 5 -29
10 -3 6 -4 5 -3 -1z"/>
<path d="M4655 3361 c-3 -5 -1 -12 5 -16 5 -3 10 1 10 9 0 18 -6 21 -15 7z"/>
<path d="M1300 3330 c0 -10 19 -24 38 -26 21 -4 13 12 -13 24 -14 6 -25 7 -25
2z"/>
<path d="M986 3243 c-35 -35 -47 -59 -78 -153 -40 -121 -46 -160 -41 -243 8
-112 22 -81 24 52 1 95 4 115 20 130 10 9 30 48 44 86 14 39 35 87 46 108 26
48 20 55 -15 20z"/>
<path d="M1945 3262 c-56 -5 -75 -25 -75 -80 0 -38 5 -50 39 -83 37 -37 42
-39 83 -33 23 4 44 7 45 8 1 1 2 21 4 46 2 43 -27 132 -47 141 -5 3 -27 3 -49
1z"/>
<path d="M2020 3253 c0 -4 5 -15 10 -23 8 -13 10 -13 10 2 0 9 -4 20 -10 23
-5 3 -10 3 -10 -2z"/>
<path d="M1020 3236 c0 -2 8 -10 18 -17 15 -13 16 -12 3 4 -13 16 -21 21 -21
13z"/>
<path d="M2173 2978 c0 -28 4 -46 10 -45 6 1 18 -11 26 -28 15 -30 16 -30 19
-6 2 15 -2 28 -12 33 -13 7 -14 13 -6 29 6 10 7 19 3 18 -22 -4 -32 3 -36 24
-2 12 -4 1 -4 -25z"/>
<path d="M2020 2934 c0 -8 5 -12 10 -9 6 3 10 10 10 16 0 5 -4 9 -10 9 -5 0
-10 -7 -10 -16z"/>
<path d="M2256 2825 c4 -8 11 -15 16 -15 6 0 5 6 -2 15 -7 8 -14 15 -16 15 -2
0 -1 -7 2 -15z"/>
<path d="M2265 2790 c3 -5 8 -10 11 -10 2 0 4 5 4 10 0 6 -5 10 -11 10 -5 0
-7 -4 -4 -10z"/>
<path d="M2285 2777 c-3 -12 1 -36 9 -52 14 -27 16 -28 16 -7 0 12 -4 22 -10
22 -5 0 -7 13 -3 30 6 35 -4 41 -12 7z"/>
<path d="M2141 2728 c17 -32 24 -38 27 -25 5 26 -4 44 -28 57 -21 11 -21 11 1
-32z"/>
<path d="M2331 2739 c0 -15 7 -33 17 -40 15 -12 16 -12 5 1 -6 8 -13 26 -16
40 l-4 25 -2 -26z"/>
<path d="M2310 2670 c0 -5 5 -10 10 -10 6 0 10 5 10 10 0 6 -4 10 -10 10 -5 0
-10 -4 -10 -10z"/>
<path d="M935 2485 c7 -31 12 -41 19 -34 2 2 -3 18 -11 34 l-14 30 6 -30z"/>
<path d="M970 2471 c0 -6 4 -13 10 -16 6 -3 7 1 4 9 -7 18 -14 21 -14 7z"/>
<path d="M850 2359 c7 -11 14 -18 17 -15 8 8 -5 36 -17 36 -7 0 -7 -6 0 -21z"/>
<path d="M324 2230 c4 -25 2 -40 -4 -40 -5 0 -10 11 -10 24 0 27 -15 42 -25
26 -4 -6 -10 -8 -14 -6 -15 10 -238 2 -248 -8 -10 -10 -12 -76 -2 -82 5 -3 29
-2 54 1 31 5 46 13 50 26 8 25 31 24 38 -1 5 -19 11 -20 94 -14 48 3 89 7 89
7 1 1 5 26 9 55 6 49 6 52 -15 52 -21 0 -22 -3 -16 -40z"/>
<path d="M4917 1950 c4 -16 0 -20 -18 -20 -12 0 -20 -2 -17 -5 2 -3 32 -2 66
1 51 6 62 10 62 25 0 16 -8 19 -49 19 -44 0 -49 -2 -44 -20z"/>
<path d="M4804 1893 c3 -38 9 -121 12 -187 l7 -119 88 7 c49 4 96 9 104 13 13
4 15 22 10 112 -3 58 -8 124 -11 146 l-5 41 -81 -8 c-45 -4 -84 -6 -86 -3 -3
3 -6 16 -8 29 -2 19 3 26 19 29 12 2 5 5 -17 6 l-38 1 6 -67z m156 -23 c0 -5
-4 -10 -10 -10 -5 0 -10 -6 -10 -14 0 -8 -16 -16 -41 -20 -46 -7 -51 -5 -56
24 -2 16 5 19 45 23 26 2 53 4 60 5 6 1 12 -2 12 -8z m3 -65 c1 -6 -10 -11
-25 -13 -16 -2 -28 -8 -28 -13 0 -5 -13 -9 -30 -9 -16 0 -30 5 -30 10 0 6 0
13 0 18 0 4 21 10 47 13 58 7 64 6 66 -6z m10 -65 c24 -28 22 -30 -24 -30 -22
0 -38 4 -35 9 3 5 -4 12 -17 16 -20 7 -19 8 13 15 19 4 37 8 40 9 3 0 13 -8
23 -19z m17 -55 c0 -16 -17 -19 -45 -9 -13 5 -14 8 -3 15 21 14 48 10 48 -6z"/>
<path d="M1319 1912 c31 -40 49 -94 30 -90 -6 2 -14 -3 -16 -9 -3 -7 2 -13 11
-13 10 0 16 -9 16 -24 0 -36 23 -50 45 -26 27 30 13 77 -40 129 -25 24 -45 48
-45 52 0 4 -7 10 -15 13 -9 3 -3 -10 14 -32z"/>
<path d="M1466 1605 c26 -38 61 -83 77 -100 24 -24 22 -19 -12 30 -23 33 -58
78 -77 100 -31 35 -30 30 12 -30z"/>
<path d="M859 1590 l-24 -20 28 11 c15 7 27 16 27 21 0 12 -5 10 -31 -12z"/>
<path d="M1306 1225 c26 -81 37 -113 45 -130 22 -47 37 -130 26 -137 -8 -5 -5
-8 7 -8 16 0 17 -2 5 -17 -12 -14 -12 -16 0 -8 11 6 13 4 8 -8 -3 -9 -1 -17 4
-19 6 -2 17 -35 25 -73 8 -39 16 -81 19 -95 4 -19 3 -21 -5 -10 -5 8 -10 25
-10 37 0 12 -8 29 -17 39 -19 19 -26 44 -12 44 5 0 9 5 9 11 0 5 -4 7 -10 4
-5 -3 -10 -2 -10 4 0 5 6 12 13 14 8 4 7 6 -3 6 -9 1 -21 18 -28 41 -15 50
-15 63 1 55 6 -4 4 0 -6 8 -10 9 -20 21 -21 29 -2 7 -6 20 -9 28 -3 8 -8 22
-10 30 -3 8 -5 -11 -4 -42 0 -31 4 -55 8 -53 10 7 19 -21 14 -46 -2 -11 3 -28
11 -36 8 -9 13 -22 10 -30 -3 -8 0 -24 6 -36 7 -12 13 -42 15 -67 3 -63 8 -94
17 -109 5 -7 8 -35 7 -62 0 -27 4 -49 9 -49 6 0 10 -24 8 -58 -1 -31 2 -63 6
-71 14 -22 15 -240 2 -328 -12 -84 -9 -94 23 -74 7 5 9 11 5 14 -5 3 -7 31 -5
62 2 39 6 53 12 44 6 -9 9 -10 9 -2 0 6 -4 14 -8 17 -4 3 -8 53 -8 113 0 59 1
89 3 65 2 -23 8 -42 13 -42 5 0 7 14 4 30 -5 21 -3 30 6 30 10 0 12 -36 8
-172 -4 -123 -3 -166 4 -148 18 42 14 410 -5 525 -10 55 -24 147 -32 205 -9
58 -20 114 -25 125 -11 25 -23 65 -25 85 -4 37 -17 80 -25 80 -4 0 -11 12 -16
28 -9 32 -9 32 -18 57 -13 33 -57 122 -50 100z m159 -602 c3 -38 11 -86 15
-108 13 -56 18 -165 8 -165 -4 0 -8 7 -8 16 0 8 -4 13 -9 10 -5 -3 -11 10 -13
30 -3 24 0 38 9 41 7 3 11 9 8 13 -5 8 -8 30 -20 125 -3 28 -8 65 -11 84 -3
20 -2 31 4 27 5 -3 13 -36 17 -73z"/>
<path d="M3410 1024 c0 -16 -71 -89 -83 -86 -7 2 -9 0 -5 -4 4 -4 0 -14 -10
-23 -10 -9 -33 -36 -52 -61 l-35 -45 43 35 c49 39 158 177 149 187 -4 3 -7 2
-7 -3z"/>
<path d="M1537 1013 c-11 -10 -8 -35 3 -28 6 3 7 -1 4 -9 -4 -10 -1 -16 9 -16
13 0 14 5 6 30 -12 33 -12 33 -22 23z"/>
<path d="M3080 769 c0 -5 5 -7 10 -4 6 3 10 8 10 11 0 2 -4 4 -10 4 -5 0 -10
-5 -10 -11z"/>
<path d="M3010 761 c0 -5 9 -7 20 -4 11 3 20 7 20 9 0 2 -9 4 -20 4 -11 0 -20
-4 -20 -9z"/>
<path d="M3080 730 c-8 -5 -11 -12 -8 -15 4 -4 17 0 30 9 24 17 5 23 -22 6z"/>
<path d="M3940 732 c0 -5 7 -9 15 -9 8 0 15 4 15 9 0 4 -7 8 -15 8 -8 0 -15
-4 -15 -8z"/>
<path d="M2958 693 c-7 -9 -16 -10 -28 -3 -24 13 -40 13 -20 0 8 -5 11 -10 5
-11 -5 0 -19 -2 -30 -4 -10 -2 -25 1 -31 6 -8 7 -13 6 -16 -1 -2 -6 -17 -13
-33 -16 -54 -10 -41 -17 20 -10 103 11 135 17 189 36 l51 18 -48 -1 c-27 -1
-53 -7 -59 -14z"/>
<path d="M2370 660 c8 -5 20 -10 25 -10 6 0 3 5 -5 10 -8 5 -19 10 -25 10 -5
0 -3 -5 5 -10z"/>
<path d="M2698 653 c6 -2 18 -2 25 0 6 3 1 5 -13 5 -14 0 -19 -2 -12 -5z"/>
<path d="M2 401 c2 -52 7 -76 17 -79 11 -4 13 9 9 62 -2 36 -10 72 -16 78 -10
10 -12 -2 -10 -61z"/>
<path d="M86 329 c-9 -13 -16 -29 -16 -36 0 -8 -11 -10 -35 -6 l-35 6 0 -147
0 -146 262 0 261 0 -58 63 c-231 248 -338 323 -379 266z"/>
<path d="M1161 288 c-1 -44 -24 -128 -33 -122 -4 3 -8 1 -8 -5 0 -13 -35 -6
-62 13 -12 9 -34 16 -48 15 l-25 -1 25 -8 c25 -8 25 -8 2 -9 -13 -1 -20 -5
-17 -11 3 -5 0 -7 -7 -5 -8 3 -21 -8 -31 -25 -10 -16 -25 -30 -33 -30 -8 0
-14 -7 -14 -15 0 -9 -7 -18 -15 -21 -8 -4 -15 -12 -15 -20 0 -8 -4 -14 -10
-14 -5 0 -10 -7 -10 -15 0 -13 27 -15 183 -15 l183 0 12 45 c17 63 15 87 -3
55 l-14 -25 0 35 c0 19 4 70 7 112 7 69 6 76 -10 75 -10 -1 -18 -6 -19 -12 0
-5 -4 -1 -9 10 l-9 20 -1 -20 -1 -20 -9 20 c-8 18 -9 17 -9 -7z"/>
<path d="M3865 200 c-3 -5 -2 -10 4 -10 5 0 13 5 16 10 3 6 2 10 -4 10 -5 0
-13 -4 -16 -10z"/>
<path d="M2994 103 c-3 -10 -12 -35 -20 -56 -18 -47 -18 -47 4 -47 27 0 31 8
22 40 -7 23 -5 29 11 33 23 6 26 47 4 47 -9 0 -18 -8 -21 -17z"/>
<path d="M2920 85 c0 -10 7 -15 18 -13 21 4 19 22 -2 26 -10 2 -16 -3 -16 -13z"/>
<path d="M3129 51 c-32 -36 -27 -51 17 -51 27 0 37 5 43 22 10 26 -3 58 -22
58 -7 0 -24 -13 -38 -29z"/>
<path d="M2770 36 c0 -24 16 -43 26 -33 8 7 -7 57 -17 57 -5 0 -9 -11 -9 -24z"/>
<path d="M2841 14 c0 -11 3 -14 6 -6 3 7 2 16 -1 19 -3 4 -6 -2 -5 -13z"/>
</g>
</svg>
